<svg width="42" height="57" viewBox="0 0 42 57" fill="none" xmlns="http://www.w3.org/2000/svg">
<path d="M23.2998 21.8816C23.6847 20.7254 25.3155 20.7254 25.7005 21.8816L27.9578 28.668C28.4546 30.1599 29.2917 31.5153 30.4027 32.627C31.5138 33.7387 32.8682 34.576 34.3586 35.0726L41.1338 37.3324C42.2887 37.7178 42.2887 39.3505 41.1338 39.7358L34.3551 41.9957C32.8649 42.4931 31.511 43.3311 30.4006 44.4434C29.2902 45.5557 28.4538 46.9116 27.9578 48.4037L25.7005 55.1866C25.6175 55.4398 25.4568 55.6603 25.2412 55.8166C25.0256 55.9729 24.7663 56.057 24.5001 56.057C24.234 56.057 23.9746 55.9729 23.7591 55.8166C23.5435 55.6603 23.3828 55.4398 23.2998 55.1866L21.0425 48.4002C20.546 46.9087 19.7094 45.5535 18.599 44.4419C17.4886 43.3302 16.135 42.4927 14.6452 41.9957L7.86641 39.7358C7.61352 39.6528 7.39331 39.4918 7.23718 39.276C7.08106 39.0602 6.997 38.8006 6.997 38.5341C6.997 38.2677 7.08106 38.008 7.23718 37.7922C7.39331 37.5764 7.61352 37.4155 7.86641 37.3324L14.6452 35.0726C16.135 34.5755 17.4886 33.738 18.599 32.6264C19.7094 31.5147 20.546 30.1595 21.0425 28.668L23.2998 21.8816ZM9.7807 4.01686C9.83089 3.86514 9.92756 3.7331 10.057 3.63952C10.1864 3.54594 10.342 3.49557 10.5016 3.49557C10.6613 3.49557 10.8169 3.54594 10.9463 3.63952C11.0757 3.7331 11.1724 3.86514 11.2225 4.01686L12.5769 8.08802C13.1823 9.90287 14.6032 11.3253 16.416 11.9314L20.4826 13.2873C20.6341 13.3376 20.766 13.4344 20.8595 13.5639C20.9529 13.6935 21.0033 13.8492 21.0033 14.0091C21.0033 14.1689 20.9529 14.3247 20.8595 14.4542C20.766 14.5838 20.6341 14.6806 20.4826 14.7308L16.416 16.0867C15.5219 16.3849 14.7095 16.8875 14.0432 17.5546C13.3768 18.2217 12.8748 19.035 12.5769 19.9301L11.2225 24.0013C11.1724 24.153 11.0757 24.285 10.9463 24.3786C10.8169 24.4722 10.6613 24.5226 10.5016 24.5226C10.342 24.5226 10.1864 24.4722 10.057 24.3786C9.92756 24.285 9.83089 24.153 9.7807 24.0013L8.42635 19.9301C8.12847 19.035 7.62646 18.2217 6.9601 17.5546C6.29373 16.8875 5.48133 16.3849 4.58726 16.0867L0.520699 14.7308C0.369146 14.6806 0.237262 14.5838 0.143787 14.4542C0.0503118 14.3247 0 14.1689 0 14.0091C0 13.8492 0.0503118 13.6935 0.143787 13.5639C0.237262 13.4344 0.369146 13.3376 0.520699 13.2873L4.58726 11.9314C5.48133 11.6332 6.29373 11.1307 6.9601 10.4635C7.62646 9.79642 8.12847 8.9831 8.42635 8.08802L9.7807 4.01686ZM34.5196 0.341608C34.5541 0.241848 34.6188 0.155344 34.7048 0.094121C34.7907 0.0328983 34.8935 0 34.999 0C35.1045 0 35.2073 0.0328983 35.2932 0.094121C35.3792 0.155344 35.4439 0.241848 35.4784 0.341608L36.3814 3.05338C36.7838 4.26562 37.7322 5.21509 38.9431 5.618L41.6518 6.52192C41.7514 6.55651 41.8378 6.62132 41.899 6.70734C41.9601 6.79336 41.993 6.89633 41.993 7.00191C41.993 7.1075 41.9601 7.21046 41.899 7.29648C41.8378 7.3825 41.7514 7.44732 41.6518 7.4819L38.9431 8.38583C38.3463 8.58456 37.8041 8.91983 37.3594 9.36501C36.9147 9.8102 36.5799 10.353 36.3814 10.9504L35.4784 13.6622C35.4439 13.762 35.3792 13.8485 35.2932 13.9097C35.2073 13.9709 35.1045 14.0038 34.999 14.0038C34.8935 14.0038 34.7907 13.9709 34.7048 13.9097C34.6188 13.8485 34.5541 13.762 34.5196 13.6622L33.6166 10.9504C33.4181 10.353 33.0832 9.8102 32.6386 9.36501C32.1939 8.91983 31.6516 8.58456 31.0549 8.38583L28.3497 7.4819C28.2501 7.44732 28.1637 7.3825 28.1025 7.29648C28.0414 7.21046 28.0085 7.1075 28.0085 7.00191C28.0085 6.89633 28.0414 6.79336 28.1025 6.70734C28.1637 6.62132 28.2501 6.55651 28.3497 6.52192L31.0584 5.618C32.2693 5.21509 33.2177 4.26562 33.6201 3.05338L34.5196 0.345112V0.341608Z" fill="#E3FCFF"/>
</svg>
